<mxfile host="drawio-plugin" modified="2023-06-03T13:41:14.623Z" agent="5.0 (X11; Linux x86_64) AppleWebKit/537.36 (KHTML, like Gecko) Chrome/104.0.5112.102 Safari/537.36" version="20.5.3" etag="TS7nWJvkAB2cEgI6NMxj" type="embed"><diagram id="7F7Z7QZvY10YVvrjctDP" name="Page-1"><mxGraphModel dx="1569" dy="433" grid="1" gridSize="10" guides="1" tooltips="1" connect="1" arrows="1" fold="1" page="1" pageScale="1" pageWidth="827" pageHeight="1169" math="0" shadow="0"><root><mxCell id="0"/><mxCell id="1" parent="0"/><mxCell id="2" value="" style="ellipse;html=1;shape=startState;fillColor=#000000;strokeColor=#A9C4EB;" vertex="1" parent="1"><mxGeometry x="40" y="40" width="30" height="30" as="geometry"/></mxCell><mxCell id="3" value="" style="edgeStyle=orthogonalEdgeStyle;html=1;verticalAlign=bottom;endArrow=open;endSize=8;strokeColor=#6c8ebf;rounded=0;fillColor=#dae8fc;" edge="1" source="2" parent="1"><mxGeometry relative="1" as="geometry"><mxPoint x="55" y="130" as="targetPoint"/></mxGeometry></mxCell><mxCell id="4" value="Create a new Recipe" style="rounded=1;whiteSpace=wrap;html=1;arcSize=40;fillColor=#ffe6cc;strokeColor=#d79b00;" vertex="1" parent="1"><mxGeometry x="-5" y="130" width="120" height="40" as="geometry"/></mxCell><mxCell id="5" value="" style="edgeStyle=orthogonalEdgeStyle;html=1;verticalAlign=bottom;endArrow=open;endSize=8;strokeColor=#6c8ebf;rounded=0;fillColor=#dae8fc;" edge="1" source="4" parent="1"><mxGeometry relative="1" as="geometry"><mxPoint x="55" y="230" as="targetPoint"/></mxGeometry></mxCell><mxCell id="7" value="Add a new step" style="rounded=1;whiteSpace=wrap;html=1;arcSize=40;fillColor=#ffe6cc;strokeColor=#d79b00;" vertex="1" parent="1"><mxGeometry x="-5" y="230" width="120" height="40" as="geometry"/></mxCell><mxCell id="8" value="The step is a callable" style="rhombus;whiteSpace=wrap;html=1;fillColor=#ffe6cc;strokeColor=#d79b00;" vertex="1" parent="1"><mxGeometry x="2.5" y="310" width="105" height="80" as="geometry"/></mxCell><mxCell id="9" value="yes" style="edgeStyle=orthogonalEdgeStyle;html=1;align=left;verticalAlign=bottom;endArrow=open;endSize=8;strokeColor=#6c8ebf;rounded=0;entryX=0;entryY=0.5;entryDx=0;entryDy=0;fillColor=#dae8fc;" edge="1" source="8" parent="1" target="15"><mxGeometry x="-1" relative="1" as="geometry"><mxPoint x="180" y="340" as="targetPoint"/></mxGeometry></mxCell><mxCell id="10" value="no" style="edgeStyle=orthogonalEdgeStyle;html=1;align=left;verticalAlign=top;endArrow=open;endSize=8;strokeColor=#6c8ebf;rounded=0;fillColor=#dae8fc;" edge="1" source="8" parent="1"><mxGeometry x="-0.6" y="15" relative="1" as="geometry"><mxPoint x="55" y="440" as="targetPoint"/><mxPoint as="offset"/></mxGeometry></mxCell><mxCell id="14" value="" style="edgeStyle=orthogonalEdgeStyle;html=1;verticalAlign=bottom;endArrow=open;endSize=8;strokeColor=#6c8ebf;rounded=0;exitX=0.5;exitY=1;exitDx=0;exitDy=0;entryX=0.5;entryY=0;entryDx=0;entryDy=0;fillColor=#dae8fc;" edge="1" parent="1" source="7" target="8"><mxGeometry relative="1" as="geometry"><mxPoint x="230" y="430" as="targetPoint"/><mxPoint x="230" y="370" as="sourcePoint"/><Array as="points"><mxPoint x="55" y="290"/><mxPoint x="55" y="290"/></Array></mxGeometry></mxCell><mxCell id="15" value="Convert to a standard Bowl" style="rounded=1;whiteSpace=wrap;html=1;arcSize=40;fillColor=#ffe6cc;strokeColor=#d79b00;" vertex="1" parent="1"><mxGeometry x="190" y="330" width="120" height="40" as="geometry"/></mxCell><mxCell id="16" value="" style="edgeStyle=orthogonalEdgeStyle;html=1;verticalAlign=bottom;endArrow=open;endSize=8;strokeColor=#6c8ebf;rounded=0;entryX=1;entryY=0.5;entryDx=0;entryDy=0;fillColor=#dae8fc;" edge="1" source="15" parent="1" target="17"><mxGeometry relative="1" as="geometry"><mxPoint x="230" y="450" as="targetPoint"/><Array as="points"><mxPoint x="240" y="460"/></Array></mxGeometry></mxCell><mxCell id="17" value="Register the step" style="rounded=1;whiteSpace=wrap;html=1;arcSize=40;fillColor=#ffe6cc;strokeColor=#d79b00;" vertex="1" parent="1"><mxGeometry x="-5" y="440" width="120" height="40" as="geometry"/></mxCell><mxCell id="18" value="" style="edgeStyle=orthogonalEdgeStyle;html=1;verticalAlign=bottom;endArrow=open;endSize=8;strokeColor=#6c8ebf;rounded=0;fillColor=#dae8fc;" edge="1" source="17" parent="1"><mxGeometry relative="1" as="geometry"><mxPoint x="55" y="540" as="targetPoint"/></mxGeometry></mxCell><mxCell id="19" value="Have more&lt;br&gt;steps ?" style="rhombus;whiteSpace=wrap;html=1;fillColor=#ffe6cc;strokeColor=#d79b00;" vertex="1" parent="1"><mxGeometry x="2.5" y="540" width="105" height="80" as="geometry"/></mxCell><mxCell id="20" value="yes" style="edgeStyle=orthogonalEdgeStyle;html=1;align=left;verticalAlign=bottom;endArrow=open;endSize=8;strokeColor=#6c8ebf;rounded=0;entryX=1;entryY=0.5;entryDx=0;entryDy=0;fillColor=#dae8fc;" edge="1" parent="1" target="7"><mxGeometry x="-1" relative="1" as="geometry"><mxPoint x="190" y="579.76" as="targetPoint"/><mxPoint x="107.5" y="579.76" as="sourcePoint"/><Array as="points"><mxPoint x="340" y="580"/><mxPoint x="340" y="250"/></Array></mxGeometry></mxCell><mxCell id="21" value="no" style="edgeStyle=orthogonalEdgeStyle;html=1;align=left;verticalAlign=top;endArrow=open;endSize=8;strokeColor=#6c8ebf;rounded=0;fillColor=#dae8fc;" edge="1" parent="1"><mxGeometry x="-0.6" y="15" relative="1" as="geometry"><mxPoint x="54.76" y="670" as="targetPoint"/><mxPoint x="54.76" y="620" as="sourcePoint"/><mxPoint as="offset"/></mxGeometry></mxCell><mxCell id="22" value="Define the expected Dish" style="rounded=1;whiteSpace=wrap;html=1;arcSize=40;fillColor=#ffe6cc;strokeColor=#d79b00;" vertex="1" parent="1"><mxGeometry x="-5" y="670" width="120" height="40" as="geometry"/></mxCell><mxCell id="24" value="no" style="edgeStyle=orthogonalEdgeStyle;html=1;align=left;verticalAlign=top;endArrow=open;endSize=8;strokeColor=#6c8ebf;rounded=0;fillColor=#dae8fc;" edge="1" parent="1"><mxGeometry x="-0.6" y="15" relative="1" as="geometry"><mxPoint x="54.75999999999999" y="760" as="targetPoint"/><mxPoint x="54.75999999999999" y="710" as="sourcePoint"/><mxPoint as="offset"/></mxGeometry></mxCell><mxCell id="25" value="Get or create an&lt;br&gt;untrained chef" style="rounded=1;whiteSpace=wrap;html=1;arcSize=40;fillColor=#ffe6cc;strokeColor=#d79b00;" vertex="1" parent="1"><mxGeometry x="-5" y="760" width="120" height="40" as="geometry"/></mxCell><mxCell id="27" value="Train the chef" style="rounded=1;whiteSpace=wrap;html=1;arcSize=40;fillColor=#ffe6cc;strokeColor=#d79b00;" vertex="1" parent="1"><mxGeometry x="-5" y="860" width="120" height="40" as="geometry"/></mxCell><mxCell id="28" value="" style="edgeStyle=orthogonalEdgeStyle;html=1;verticalAlign=bottom;endArrow=open;endSize=8;strokeColor=#6c8ebf;rounded=0;entryX=0.5;entryY=0;entryDx=0;entryDy=0;fillColor=#dae8fc;" edge="1" source="27" parent="1" target="30"><mxGeometry relative="1" as="geometry"><mxPoint x="200" y="880" as="targetPoint"/></mxGeometry></mxCell><mxCell id="29" value="" style="edgeStyle=orthogonalEdgeStyle;html=1;verticalAlign=bottom;endArrow=open;endSize=8;strokeColor=#6c8ebf;rounded=0;fillColor=#dae8fc;" edge="1" parent="1"><mxGeometry relative="1" as="geometry"><mxPoint x="54.760000000000005" y="860" as="targetPoint"/><mxPoint x="54.760000000000005" y="800" as="sourcePoint"/></mxGeometry></mxCell><mxCell id="30" value="" style="ellipse;html=1;shape=endState;fillColor=#000000;strokeColor=#A9C4EB;" vertex="1" parent="1"><mxGeometry x="40" y="940" width="30" height="30" as="geometry"/></mxCell><mxCell id="31" value="" style="ellipse;html=1;shape=startState;fillColor=#000000;strokeColor=#A9C4EB;" vertex="1" parent="1"><mxGeometry x="425" y="40" width="30" height="30" as="geometry"/></mxCell><mxCell id="32" value="" style="edgeStyle=orthogonalEdgeStyle;html=1;verticalAlign=bottom;endArrow=open;endSize=8;strokeColor=#6c8ebf;rounded=0;fillColor=#dae8fc;" edge="1" parent="1" source="31"><mxGeometry relative="1" as="geometry"><mxPoint x="440" y="130" as="targetPoint"/></mxGeometry></mxCell><mxCell id="33" value="Create a cookbook" style="rounded=1;whiteSpace=wrap;html=1;arcSize=40;fillColor=#ffe6cc;strokeColor=#d79b00;" vertex="1" parent="1"><mxGeometry x="380" y="130" width="120" height="40" as="geometry"/></mxCell><mxCell id="34" value="" style="edgeStyle=orthogonalEdgeStyle;html=1;verticalAlign=bottom;endArrow=open;endSize=8;strokeColor=#6c8ebf;rounded=0;fillColor=#dae8fc;" edge="1" parent="1" source="33"><mxGeometry relative="1" as="geometry"><mxPoint x="440" y="230" as="targetPoint"/></mxGeometry></mxCell><mxCell id="55" value="Get a trained chef &lt;br&gt;from a dynamic recipe" style="text;html=1;align=center;verticalAlign=middle;resizable=0;points=[];autosize=1;strokeColor=none;fillColor=none;" vertex="1" parent="1"><mxGeometry x="-17.5" y="5" width="140" height="40" as="geometry"/></mxCell><mxCell id="56" value="Get a trained chef &lt;br&gt;from a static recipe" style="text;html=1;align=center;verticalAlign=middle;resizable=0;points=[];autosize=1;strokeColor=none;fillColor=none;" vertex="1" parent="1"><mxGeometry x="380" width="120" height="40" as="geometry"/></mxCell><mxCell id="58" value="Get or create an&lt;br&gt;untrained chef" style="rounded=1;whiteSpace=wrap;html=1;arcSize=40;fillColor=#ffe6cc;strokeColor=#d79b00;" vertex="1" parent="1"><mxGeometry x="380" y="230" width="120" height="40" as="geometry"/></mxCell><mxCell id="59" value="Train the chef" style="rounded=1;whiteSpace=wrap;html=1;arcSize=40;fillColor=#ffe6cc;strokeColor=#d79b00;" vertex="1" parent="1"><mxGeometry x="380" y="330" width="120" height="40" as="geometry"/></mxCell><mxCell id="60" value="" style="edgeStyle=orthogonalEdgeStyle;html=1;verticalAlign=bottom;endArrow=open;endSize=8;strokeColor=#6c8ebf;rounded=0;entryX=0.5;entryY=0;entryDx=0;entryDy=0;fillColor=#dae8fc;" edge="1" parent="1" source="59" target="62"><mxGeometry relative="1" as="geometry"><mxPoint x="585" y="350" as="targetPoint"/></mxGeometry></mxCell><mxCell id="61" value="" style="edgeStyle=orthogonalEdgeStyle;html=1;verticalAlign=bottom;endArrow=open;endSize=8;strokeColor=#6c8ebf;rounded=0;fillColor=#dae8fc;" edge="1" parent="1"><mxGeometry relative="1" as="geometry"><mxPoint x="439.7600000000002" y="330" as="targetPoint"/><mxPoint x="439.7600000000002" y="270" as="sourcePoint"/></mxGeometry></mxCell><mxCell id="62" value="" style="ellipse;html=1;shape=endState;fillColor=#000000;strokeColor=#A9C4EB;" vertex="1" parent="1"><mxGeometry x="425" y="410" width="30" height="30" as="geometry"/></mxCell><mxCell id="65" value="" style="ellipse;html=1;shape=startState;fillColor=#000000;strokeColor=#A9C4EB;" vertex="1" parent="1"><mxGeometry x="597" y="40" width="30" height="30" as="geometry"/></mxCell><mxCell id="66" value="Execute a recipe&lt;br&gt;with a&amp;nbsp;trained chef" style="text;html=1;align=center;verticalAlign=middle;resizable=0;points=[];autosize=1;strokeColor=none;fillColor=none;" vertex="1" parent="1"><mxGeometry x="547" width="120" height="40" as="geometry"/></mxCell><mxCell id="67" value="Initialize the workplan" style="rounded=1;whiteSpace=wrap;html=1;arcSize=40;fillColor=#ffe6cc;strokeColor=#d79b00;" vertex="1" parent="1"><mxGeometry x="552" y="130" width="120" height="40" as="geometry"/></mxCell><mxCell id="68" value="" style="edgeStyle=orthogonalEdgeStyle;html=1;verticalAlign=bottom;endArrow=open;endSize=8;strokeColor=#6c8ebf;rounded=0;fillColor=#dae8fc;" edge="1" parent="1"><mxGeometry relative="1" as="geometry"><mxPoint x="611.66" y="130" as="targetPoint"/><mxPoint x="611.66" y="70" as="sourcePoint"/></mxGeometry></mxCell><mxCell id="71" value="Have all required&lt;br&gt;ingredients ?" style="rhombus;whiteSpace=wrap;html=1;fillColor=#ffe6cc;strokeColor=#d79b00;" vertex="1" parent="1"><mxGeometry x="557" y="230" width="105" height="80" as="geometry"/></mxCell><mxCell id="72" value="No" style="edgeStyle=orthogonalEdgeStyle;html=1;align=left;verticalAlign=bottom;endArrow=open;endSize=8;strokeColor=#6c8ebf;rounded=0;entryX=0;entryY=0.5;entryDx=0;entryDy=0;fillColor=#dae8fc;" edge="1" parent="1" source="71"><mxGeometry x="-1" relative="1" as="geometry"><mxPoint x="744.5000000000002" y="269.9999999999999" as="targetPoint"/></mxGeometry></mxCell><mxCell id="73" value="Yes" style="edgeStyle=orthogonalEdgeStyle;html=1;align=left;verticalAlign=top;endArrow=open;endSize=8;strokeColor=#6c8ebf;rounded=0;fillColor=#dae8fc;" edge="1" parent="1" source="71"><mxGeometry x="-0.6" y="20" relative="1" as="geometry"><mxPoint x="609.5000000000002" y="359.9999999999999" as="targetPoint"/><mxPoint x="1" as="offset"/></mxGeometry></mxCell><mxCell id="74" value="" style="edgeStyle=orthogonalEdgeStyle;html=1;verticalAlign=bottom;endArrow=open;endSize=8;strokeColor=#6c8ebf;rounded=0;fillColor=#dae8fc;" edge="1" parent="1"><mxGeometry relative="1" as="geometry"><mxPoint x="609.2600000000002" y="229.9999999999999" as="targetPoint"/><mxPoint x="609.2600000000002" y="169.9999999999999" as="sourcePoint"/></mxGeometry></mxCell><mxCell id="75" value="Throw an exception" style="rounded=1;whiteSpace=wrap;html=1;arcSize=40;fillColor=#ffe6cc;strokeColor=#d79b00;" vertex="1" parent="1"><mxGeometry x="745" y="250" width="120" height="40" as="geometry"/></mxCell><mxCell id="76" value="" style="edgeStyle=orthogonalEdgeStyle;html=1;verticalAlign=bottom;endArrow=open;endSize=8;strokeColor=#6c8ebf;rounded=0;entryX=0.5;entryY=0;entryDx=0;entryDy=0;fillColor=#dae8fc;" edge="1" parent="1" source="75" target="77"><mxGeometry relative="1" as="geometry"><mxPoint x="950" y="270" as="targetPoint"/></mxGeometry></mxCell><mxCell id="77" value="" style="ellipse;html=1;shape=endState;fillColor=#000000;strokeColor=#A9C4EB;" vertex="1" parent="1"><mxGeometry x="790" y="330" width="30" height="30" as="geometry"/></mxCell><mxCell id="78" value="Get the next step" style="rounded=1;whiteSpace=wrap;html=1;arcSize=40;fillColor=#ffe6cc;strokeColor=#d79b00;" vertex="1" parent="1"><mxGeometry x="549.5" y="360" width="120" height="40" as="geometry"/></mxCell><mxCell id="79" value="Step is null ?" style="rhombus;whiteSpace=wrap;html=1;fillColor=#ffe6cc;strokeColor=#d79b00;" vertex="1" parent="1"><mxGeometry x="557" y="460" width="105" height="80" as="geometry"/></mxCell><mxCell id="81" value="" style="edgeStyle=orthogonalEdgeStyle;html=1;verticalAlign=bottom;endArrow=open;endSize=8;strokeColor=#6c8ebf;rounded=0;fillColor=#dae8fc;" edge="1" parent="1"><mxGeometry relative="1" as="geometry"><mxPoint x="609.2100000000003" y="459.9999999999999" as="targetPoint"/><mxPoint x="609.2100000000003" y="399.9999999999999" as="sourcePoint"/></mxGeometry></mxCell><mxCell id="83" value="No" style="edgeStyle=orthogonalEdgeStyle;html=1;align=left;verticalAlign=bottom;endArrow=open;endSize=8;strokeColor=#6c8ebf;rounded=0;entryX=0;entryY=0.5;entryDx=0;entryDy=0;fillColor=#dae8fc;" edge="1" parent="1" target="84"><mxGeometry x="-1" relative="1" as="geometry"><mxPoint x="744.5" y="499.9999999999999" as="targetPoint"/><mxPoint x="661.9999999999995" y="499.9999999999999" as="sourcePoint"/></mxGeometry></mxCell><mxCell id="84" value="Put ingredients from the workplan, from the callable arguments into the bowl" style="rounded=1;whiteSpace=wrap;html=1;arcSize=40;fillColor=#ffe6cc;strokeColor=#d79b00;" vertex="1" parent="1"><mxGeometry x="712.5" y="480" width="207.5" height="40" as="geometry"/></mxCell><mxCell id="86" value="Execute the step in the bowl" style="rounded=1;whiteSpace=wrap;html=1;arcSize=40;fillColor=#ffe6cc;strokeColor=#d79b00;" vertex="1" parent="1"><mxGeometry x="712.5" y="565" width="207.5" height="40" as="geometry"/></mxCell><mxCell id="87" value="" style="edgeStyle=orthogonalEdgeStyle;html=1;verticalAlign=bottom;endArrow=open;endSize=8;strokeColor=#6c8ebf;rounded=0;fillColor=#dae8fc;entryX=0.5;entryY=0;entryDx=0;entryDy=0;exitX=0.5;exitY=1;exitDx=0;exitDy=0;" edge="1" parent="1" source="84" target="86"><mxGeometry relative="1" as="geometry"><mxPoint x="804.71" y="579.9999999999999" as="targetPoint"/><mxPoint x="804.71" y="519.9999999999999" as="sourcePoint"/></mxGeometry></mxCell><mxCell id="88" value="Step set a jump to another step ?" style="rhombus;whiteSpace=wrap;html=1;fillColor=#ffe6cc;strokeColor=#d79b00;" vertex="1" parent="1"><mxGeometry x="753.13" y="650" width="126.25" height="80" as="geometry"/></mxCell><mxCell id="89" value="" style="edgeStyle=orthogonalEdgeStyle;html=1;verticalAlign=bottom;endArrow=open;endSize=8;strokeColor=#6c8ebf;rounded=0;fillColor=#dae8fc;entryX=0.5;entryY=0;entryDx=0;entryDy=0;exitX=0.5;exitY=1;exitDx=0;exitDy=0;" edge="1" parent="1"><mxGeometry relative="1" as="geometry"><mxPoint x="816.05" y="650" as="targetPoint"/><mxPoint x="816.05" y="605" as="sourcePoint"/></mxGeometry></mxCell><mxCell id="90" value="No" style="edgeStyle=orthogonalEdgeStyle;html=1;align=left;verticalAlign=bottom;endArrow=open;endSize=8;strokeColor=#6c8ebf;rounded=0;entryX=1;entryY=0.5;entryDx=0;entryDy=0;fillColor=#dae8fc;" edge="1" parent="1" target="78"><mxGeometry x="-1" relative="1" as="geometry"><mxPoint x="929.88" y="689.8" as="targetPoint"/><mxPoint x="879.3799999999995" y="689.8" as="sourcePoint"/><Array as="points"><mxPoint x="950" y="690"/><mxPoint x="950" y="380"/></Array></mxGeometry></mxCell><mxCell id="91" value="Yes" style="edgeStyle=orthogonalEdgeStyle;html=1;align=left;verticalAlign=top;endArrow=open;endSize=8;strokeColor=#6c8ebf;rounded=0;fillColor=#dae8fc;" edge="1" parent="1"><mxGeometry x="-0.6" y="20" relative="1" as="geometry"><mxPoint x="816.02" y="779.9999999999999" as="targetPoint"/><mxPoint x="1" as="offset"/><mxPoint x="816.02" y="729.9999999999999" as="sourcePoint"/></mxGeometry></mxCell><mxCell id="92" value="Move the cursor" style="rounded=1;whiteSpace=wrap;html=1;arcSize=40;fillColor=#ffe6cc;strokeColor=#d79b00;" vertex="1" parent="1"><mxGeometry x="712.5" y="780" width="207.5" height="40" as="geometry"/></mxCell><mxCell id="93" value="" style="edgeStyle=orthogonalEdgeStyle;html=1;align=left;verticalAlign=top;endArrow=open;endSize=8;strokeColor=#6c8ebf;rounded=0;fillColor=#dae8fc;exitX=1;exitY=0.5;exitDx=0;exitDy=0;" edge="1" parent="1" source="92"><mxGeometry x="-0.6" y="20" relative="1" as="geometry"><mxPoint x="670" y="380" as="targetPoint"/><mxPoint x="1" as="offset"/><mxPoint x="826.02" y="740" as="sourcePoint"/><Array as="points"><mxPoint x="950" y="800"/><mxPoint x="950" y="380"/></Array></mxGeometry></mxCell><mxCell id="95" value="Get the final dish, to compare it" style="rounded=1;whiteSpace=wrap;html=1;arcSize=40;fillColor=#ffe6cc;strokeColor=#d79b00;" vertex="1" parent="1"><mxGeometry x="549.5" y="670" width="120" height="40" as="geometry"/></mxCell><mxCell id="96" value="" style="edgeStyle=orthogonalEdgeStyle;html=1;verticalAlign=bottom;endArrow=open;endSize=8;strokeColor=#6c8ebf;rounded=0;fillColor=#dae8fc;entryX=0.5;entryY=0;entryDx=0;entryDy=0;" edge="1" parent="1" target="95"><mxGeometry relative="1" as="geometry"><mxPoint x="609.21" y="600" as="targetPoint"/><mxPoint x="609.21" y="540" as="sourcePoint"/></mxGeometry></mxCell><mxCell id="97" value="Dish is valid ?" style="rhombus;whiteSpace=wrap;html=1;fillColor=#ffe6cc;strokeColor=#d79b00;" vertex="1" parent="1"><mxGeometry x="556.5" y="800" width="105" height="80" as="geometry"/></mxCell><mxCell id="99" value="" style="edgeStyle=orthogonalEdgeStyle;html=1;verticalAlign=bottom;endArrow=open;endSize=8;strokeColor=#6c8ebf;rounded=0;fillColor=#dae8fc;entryX=0.5;entryY=0;entryDx=0;entryDy=0;exitX=0.5;exitY=1;exitDx=0;exitDy=0;" edge="1" parent="1" source="95" target="97"><mxGeometry relative="1" as="geometry"><mxPoint x="619.5" y="680" as="targetPoint"/><mxPoint x="619.21" y="550" as="sourcePoint"/></mxGeometry></mxCell><mxCell id="101" value="Yes" style="edgeStyle=orthogonalEdgeStyle;html=1;align=left;verticalAlign=top;endArrow=open;endSize=8;strokeColor=#6c8ebf;rounded=0;fillColor=#dae8fc;" edge="1" parent="1"><mxGeometry x="-0.6" y="20" relative="1" as="geometry"><mxPoint x="609.27" y="930" as="targetPoint"/><mxPoint x="1" as="offset"/><mxPoint x="609.27" y="880" as="sourcePoint"/></mxGeometry></mxCell><mxCell id="102" value="Return the dish" style="rounded=1;whiteSpace=wrap;html=1;arcSize=40;fillColor=#ffe6cc;strokeColor=#d79b00;" vertex="1" parent="1"><mxGeometry x="505.75" y="930" width="207.5" height="40" as="geometry"/></mxCell><mxCell id="103" value="" style="edgeStyle=orthogonalEdgeStyle;html=1;verticalAlign=bottom;endArrow=open;endSize=8;strokeColor=#6c8ebf;rounded=0;entryX=0.5;entryY=0;entryDx=0;entryDy=0;fillColor=#dae8fc;" edge="1" parent="1" target="104"><mxGeometry relative="1" as="geometry"><mxPoint x="754" y="950" as="targetPoint"/><mxPoint x="609" y="970" as="sourcePoint"/></mxGeometry></mxCell><mxCell id="104" value="" style="ellipse;html=1;shape=endState;fillColor=#000000;strokeColor=#A9C4EB;" vertex="1" parent="1"><mxGeometry x="594" y="1010" width="30" height="30" as="geometry"/></mxCell><mxCell id="105" value="No" style="edgeStyle=orthogonalEdgeStyle;html=1;align=left;verticalAlign=bottom;endArrow=open;endSize=8;strokeColor=#6c8ebf;rounded=0;fillColor=#dae8fc;exitX=1;exitY=0.5;exitDx=0;exitDy=0;" edge="1" parent="1" source="97" target="106"><mxGeometry x="-1" relative="1" as="geometry"><mxPoint x="744.5" y="889.9999999999999" as="targetPoint"/><mxPoint x="670" y="840" as="sourcePoint"/><Array as="points"><mxPoint x="805" y="840"/></Array></mxGeometry></mxCell><mxCell id="106" value="Throw an exception" style="rounded=1;whiteSpace=wrap;html=1;arcSize=40;fillColor=#ffe6cc;strokeColor=#d79b00;" vertex="1" parent="1"><mxGeometry x="745" y="870" width="120" height="40" as="geometry"/></mxCell><mxCell id="107" value="" style="edgeStyle=orthogonalEdgeStyle;html=1;verticalAlign=bottom;endArrow=open;endSize=8;strokeColor=#6c8ebf;rounded=0;entryX=0.5;entryY=0;entryDx=0;entryDy=0;fillColor=#dae8fc;" edge="1" parent="1" source="106" target="108"><mxGeometry relative="1" as="geometry"><mxPoint x="950" y="890" as="targetPoint"/></mxGeometry></mxCell><mxCell id="108" value="" style="ellipse;html=1;shape=endState;fillColor=#000000;strokeColor=#A9C4EB;" vertex="1" parent="1"><mxGeometry x="790" y="950" width="30" height="30" as="geometry"/></mxCell></root></mxGraphModel></diagram></mxfile>